<svg width="20" height="20" viewBox="0 0 20 20" fill="none" xmlns="http://www.w3.org/2000/svg">
<path d="M10 19.1625L8.975 18.2375C7.20833 16.6208 5.75 15.225 4.6 14.05C3.45 12.875 2.53333 11.825 1.85 10.9C1.16667 9.975 0.6875 9.1375 0.4125 8.3875C0.1375 7.6375 0 6.87917 0 6.1125C0 4.6125 0.504167 3.35833 1.5125 2.35C2.52083 1.34167 3.76667 0.8375 5.25 0.8375C6.2 0.8375 7.07917 1.0625 7.8875 1.5125C8.69583 1.9625 9.4 2.6125 10 3.4625C10.7 2.5625 11.4417 1.9 12.225 1.475C13.0083 1.05 13.85 0.8375 14.75 0.8375C16.2333 0.8375 17.4792 1.34167 18.4875 2.35C19.4958 3.35833 20 4.6125 20 6.1125C20 6.87917 19.8625 7.6375 19.5875 8.3875C19.3125 9.1375 18.8333 9.975 18.15 10.9C17.4667 11.825 16.55 12.875 15.4 14.05C14.25 15.225 12.7917 16.6208 11.025 18.2375L10 19.1625Z" fill="black"/>
</svg>
